<svg width="1928" height="284" viewBox="0 0 1928 284" fill="none" xmlns="http://www.w3.org/2000/svg">
<path d="M1879.09 54.8V110H1917.49V162.8H1879.09V229.2H1927.89V282H1823.09V2H1927.89V54.8H1879.09Z" fill="#E30C13"/>
<path d="M1804.41 200.4V232.8C1804.41 250.8 1806.01 268 1811.61 282H1754.01C1749.21 272.8 1748.41 256 1748.41 238.4V189.2C1748.41 176 1745.61 168.4 1733.61 168.4H1723.21V282H1667.21V2H1748.81C1793.21 2 1804.41 16 1804.41 64V85.2C1804.41 119.2 1798.81 135.6 1779.61 142.4C1798.81 149.2 1804.41 166.4 1804.41 200.4ZM1748.41 99.6V70.8C1748.41 58.8 1747.21 54.8 1738.01 54.8H1723.21V115.6H1738.01C1747.21 115.6 1748.41 111.6 1748.41 99.6Z" fill="#E30C13"/>
<path d="M1603.7 54.8V110H1642.1V162.8H1603.7V229.2H1652.5V282H1547.7V2H1652.5V54.8H1603.7Z" fill="#E30C13"/>
<path d="M1445.89 282H1389.89V2H1445.89V110H1471.09V2H1527.09V282H1471.09V162.8H1445.89V282Z" fill="#E30C13"/>
<path d="M1261.39 198.8L1253.39 282H1185.39L1152.19 2H1208.59L1218.99 109.6C1221.79 138.4 1224.19 166 1224.99 192C1226.19 166 1228.19 138.4 1230.99 109.6L1241.39 2H1294.59L1304.59 109.6C1307.39 138.4 1309.79 166 1310.59 192C1311.39 166 1314.19 138.4 1316.99 109.6L1327.79 2H1377.79L1344.99 282H1279.79L1271.79 198.8C1269.79 176.4 1267.39 150.4 1266.59 127.2C1265.79 150.4 1263.39 176.4 1261.39 198.8Z" fill="#E30C13"/>
<path d="M1105.29 282H1049.29V198.4L1005.29 2H1061.69L1070.09 46C1073.69 65.2 1077.69 96 1080.49 129.6C1083.29 96 1087.29 65.2 1090.89 46L1099.29 2H1149.69L1105.29 198.4V282Z" fill="#E30C13"/>
<path d="M932.744 282L909.944 173.6C905.944 154 903.144 135.6 900.744 116C901.144 136 901.944 154 901.944 173.6V282H853.944V2H921.144L939.144 96.8C942.744 116 944.744 134.8 947.144 154.4C946.744 134.4 945.944 116 945.944 96.8V2H994.344V282H932.744Z" fill="#E30C13"/>
<path d="M785.944 282L781.544 245.6H749.944L745.944 282H695.544L730.344 2H807.544L841.944 282H785.944ZM765.544 43.2C763.144 87.6 759.544 137.2 754.744 196H776.344C771.544 137.2 767.944 87.6 765.544 43.2Z" fill="#E30C13"/>
<path d="M489.109 282V2H545.109V122.8C547.509 113.2 548.709 108.4 550.709 101.6L582.309 2H637.109L592.709 133.2L638.709 282H579.909L551.509 183.2C549.109 175.2 547.109 167.2 545.109 156.8V282H489.109Z" fill="#E30C13"/>
<path d="M392.328 68.8V215.2C392.328 227.2 393.528 231.2 403.128 231.2H407.128C416.728 231.2 417.928 227.2 417.928 215.2V162.4H470.328V222C470.328 270 459.128 284 415.128 284H391.928C347.928 284 336.328 270 336.328 222V62C336.328 14 347.928 0 391.928 0H415.128C459.128 0 470.328 14 470.328 62V109.6H417.928V68.8C417.928 56.8 416.728 52.8 407.128 52.8H403.128C393.528 52.8 392.328 56.8 392.328 68.8Z" fill="#E30C13"/>
<path d="M261.375 282V2H317.375V282H261.375Z" fill="#E30C13"/>
<path d="M152.781 282V2H208.781V229.2H249.981V282H152.781Z" fill="#E30C13"/>
<path d="M56 68.8V215.2C56 227.2 57.2 231.2 66.8 231.2H70.8C80.4 231.2 81.6 227.2 81.6 215.2V162.4H134V222C134 270 122.8 284 78.8 284H55.6C11.6 284 0 270 0 222V62C0 14 11.6 0 55.6 0H78.8C122.8 0 134 14 134 62V109.6H81.6V68.8C81.6 56.8 80.4 52.8 70.8 52.8H66.8C57.2 52.8 56 56.8 56 68.8Z" fill="#E30C13"/>
</svg>
